<?xml version="1.0" encoding="utf-8"?>
<!-- Generator: Adobe Illustrator 24.0.2, SVG Export Plug-In . SVG Version: 6.00 Build 0)  -->
<svg version="1.1" id="Layer_1" xmlns="http://www.w3.org/2000/svg" xmlns:xlink="http://www.w3.org/1999/xlink" x="0px" y="0px"
	 viewBox="0 0 595.28 841.89" style="enable-background:new 0 0 595.28 841.89;" xml:space="preserve">
<style type="text/css">
	.st0{fill:none;stroke:#FFFFFF;stroke-miterlimit:10;}
	.st1{fill:#BBD532;stroke:#000000;stroke-miterlimit:10;}
</style>
<path class="st0" d="M432.17,318.77c0.94,6.89,1.43,13.92,1.43,21.07c0,84.96-68.88,153.84-153.84,153.84
	c-84.97,0-153.85-68.88-153.85-153.84c0-84.5,68.12-153.09,152.45-153.84"/>
<path class="st0" d="M432.17,318.77c0.94,6.89,1.43,13.92,1.43,21.07c0,84.96-68.88,153.84-153.84,153.84
	c-84.97,0-153.85-68.88-153.85-153.84c0-84.5,68.12-153.09,152.45-153.84"/>
<path class="st0" d="M175.79,362.37c-1.01-4.7-1.73-9.52-2.11-14.45c-4.51-58.58,39.32-109.73,97.89-114.24
	c58.58-4.51,109.73,39.32,114.25,97.89c4.49,58.26-38.83,109.17-96.93,114.17"/>
<path class="st0" d="M175.79,362.37c-1.01-4.7-1.73-9.52-2.11-14.45c-4.51-58.58,39.32-109.73,97.89-114.24
	c58.58-4.51,109.73,39.32,114.25,97.89c4.49,58.26-38.83,109.17-96.93,114.17"/>
<circle class="st1" cx="279.76" cy="339.84" r="59.2"/>
</svg>
